<svg xmlns="http://www.w3.org/2000/svg" viewBox="147.768 506.9 70.169 47.809"><defs><style>.a{fill:#1b4a66;fill-rule:evenodd;}</style></defs><path class="a" d="M37.446,42.868H31.4a.62.62,0,0,0-.65.6.662.662,0,0,0,.65.65h6.051a.662.662,0,0,0,.65-.65A.62.62,0,0,0,37.446,42.868Zm0,1.8H31.4a.662.662,0,0,0-.65.65.62.62,0,0,0,.65.6h6.051a.62.62,0,0,0,.65-.6A.662.662,0,0,0,37.446,44.669Zm-2.1,1.8H33.5a.65.65,0,0,0,0,1.3h1.85a.65.65,0,1,0,0-1.3ZM34.5,10.413a13.986,13.986,0,0,0-6.5,26.4,5.29,5.29,0,0,1,2.4,4.5c0,.6,1.75.75,3.9.75s3.851-.05,3.9-.7a5.3,5.3,0,0,1,2.5-4.451,14,14,0,0,0-6.2-26.5Zm7.251,22.854A11.372,11.372,0,1,1,43.1,17.215,11.347,11.347,0,0,1,41.747,33.267Zm-16.1-5.851h1.85v-6.2h-1.85Zm6.6-5.851a3.487,3.487,0,0,0-.85-.3c-.25,0-.55-.05-.9-.05h-2.15v6.2h1.85V23.065h.35c1.1,0,1.7.4,1.7,1.25a1.252,1.252,0,0,1-.4.9,1.651,1.651,0,0,1-1.05.35h-.3v1.85h.3a3.587,3.587,0,0,0,1.45-.3,3.645,3.645,0,0,0,1.35-1.1,3.2,3.2,0,0,0,.45-1.7,3.024,3.024,0,0,0-.45-1.65A2.884,2.884,0,0,0,32.245,21.565Zm3.7-.25a3.055,3.055,0,0,0-.7.35,2.094,2.094,0,0,0-.55.8,4.615,4.615,0,0,0-.05.95v2.3a1.467,1.467,0,0,0,.2.8,2.212,2.212,0,0,0,.7.65,3.8,3.8,0,0,0,.55.2c.2,0,.45.05.7.05h1.3v-1.8h-1.35c-.25,0-.35-.1-.35-.35,0-.1,0-.15.05-.2s.15-.05.3-.05H38v-1.4H36.9c-.25,0-.35-.1-.35-.3a.382.382,0,0,1,.1-.25,2.166,2.166,0,0,1,.25-.05h1.2v-1.8H36.9A5.539,5.539,0,0,0,35.946,21.315Zm7.251,1.7a2.725,2.725,0,0,0-.4-.95,1.929,1.929,0,0,0-1.75-.95,2.194,2.194,0,0,0-1.35.45,2.409,2.409,0,0,0-.75,1.25,3.693,3.693,0,0,0-.1.6v4H40.7v-1.45h.5v-1.65h-.5v-.65a1.076,1.076,0,0,1,.1-.5.3.3,0,0,1,.3-.15c.25,0,.35.2.35.65v3.751h1.8v-3.3A7.061,7.061,0,0,0,43.2,23.015Zm15.4-.1,4.751,3.451L69,18.565,64.25,15.114Zm-.3.4.25,4.8,4.551-1.35Zm11.5-7.551-3.15-2.3a.988.988,0,0,0-1.4.25s-.7.95-.7,1l4.751,3.4s.7-.95.7-1A.916.916,0,0,0,69.8,15.764ZM61.2,8.313H44.547a.994.994,0,0,0-1,.95.961.961,0,0,0,1,.95H61.2a.95.95,0,0,0,.95-.95A.984.984,0,0,0,61.2,8.313Zm.95,5a.984.984,0,0,0-.95-.95H44.547a.929.929,0,0,0-.95.8c.4.35.8.75,1.2,1.1H61.2A.95.95,0,0,0,62.15,13.314Zm-5.351,3.1H46.5c.4.6.75,1.25,1.1,1.9h9.2a.961.961,0,0,0,1-.95A.994.994,0,0,0,56.8,16.414Zm0,4.051H48.348a8.589,8.589,0,0,1,.4,1.9H56.8a.961.961,0,0,0,1-.95A.994.994,0,0,0,56.8,20.465Zm8.151,7.4a3.2,3.2,0,0,1-3.15,3.15H55.4v-1.4a5.069,5.069,0,0,0-5.051-5.051H48.9a13.549,13.549,0,0,1-1.15,5.5l6.3,2.75c.05.05.1.05.2.05.05.05.1.05.2.05H61.8a5.069,5.069,0,0,0,5.051-5.051v-5.4l-1.9,2.65Zm-24.2-16.5V6.113a3.193,3.193,0,0,1,3.15-3.1H61.8a3.127,3.127,0,0,1,3.15,3.1v7.1a1.628,1.628,0,0,1,1.15-.5,2.1,2.1,0,0,1,.75.2v-6.8A5.069,5.069,0,0,0,61.8,1.062H43.9a5.1,5.1,0,0,0-5.051,5.051v4.5A12.511,12.511,0,0,1,40.747,11.364ZM3.591,29.416c-.05-.2,0-.5-.45-.25-.45.2-1.2.55-1.55.1-.25-.3.05-.7-.2-1.05s-1-.3-1.3-1.2c-.3-.85.9-1.4,1.1-1.4.15-.05.6.2.7.75.1.5.2.5.65.8.45.25.8.5.9.85.15.35.6.45.35.85-.25.35.1.5.35.8.25.25-.05.35-.25.35C3.691,29.966,3.591,29.666,3.591,29.416Zm.25-1.65c0-.05-.05-.05-.05-.1-.1-.35-.5-.55-.95-.85-.4-.25-.5-.25-.6-.8a1.658,1.658,0,0,0-.45-.65l3.1-1.75,1.45,2.05Zm5.3-20c4.9-7.3,12.852-8.8,17.753-7.251,2.05.65,4.051,2.65,2.85,4.651-1,1.7-3.4,2.55-4.351,4.651a2.792,2.792,0,0,0,.6,2.8,14.487,14.487,0,0,0-5.651,8.351,4.583,4.583,0,0,0-.6,1.7,4.118,4.118,0,0,0,.2,1.75,14.646,14.646,0,0,0,1.85,7.151,14.752,14.752,0,0,1-11.4-4.351A15.6,15.6,0,0,1,9.142,7.763Zm5.7.45a1.882,1.882,0,0,0-1.6-2.05,1.853,1.853,0,0,0-2.05,1.6,1.825,1.825,0,0,0,1.6,2.05A1.882,1.882,0,0,0,14.843,8.213Zm-2.15,7.1a2.357,2.357,0,0,0-2.05-2.6,2.3,2.3,0,0,0-2.6,2.05,2.342,2.342,0,1,0,4.651.55Zm3.951,8.251a3.1,3.1,0,1,0-3.451,2.75A3.1,3.1,0,0,0,16.643,23.566Zm-9.751,1.65-1.4-2,.95-.7a19.094,19.094,0,0,0,1.05,2.3Zm19.3-15.052a7.375,7.375,0,0,1,2.15-2.35,9.64,9.64,0,0,0,1.5-1.35l3.2-2.15c.55-.4,1.2-.4,1.45-.05l.15.2c.25.35,0,.95-.55,1.3l-7.8,5.6a1.961,1.961,0,0,1-.2-.9C26.144,10.363,26.144,10.263,26.194,10.163Z" transform="translate(147.725 506.94)"/></svg>