<svg xmlns="http://www.w3.org/2000/svg" viewBox="223 -163 191.957 50.413"><defs><style>.a{fill-rule:evenodd;}</style></defs><g transform="translate(223 -163)"><path class="a" d="M1590.431,386.512l-.231-18.1h1.985v20.544h-2.4l-11.264-18.1.231,18.1h-2.031V368.416h2.447Zm-37.44-7.94a10.952,10.952,0,0,1,6.556-9.833,10.98,10.98,0,0,1,3.924-.739,10.557,10.557,0,0,1,4.017.785,11.22,11.22,0,0,1,3.37,2.216,11.518,11.518,0,0,1,2.354,3.462,10.855,10.855,0,0,1,.785,4.109,11.478,11.478,0,0,1-.693,4.016,10.41,10.41,0,0,1-2.031,3.324,10.21,10.21,0,0,1-3.555,2.585,10.745,10.745,0,0,1-4.247.877,9.9,9.9,0,0,1-7.433-3.139A10.441,10.441,0,0,1,1552.991,378.572Zm2.124.046a8.787,8.787,0,0,0,2.447,6.279,7.956,7.956,0,0,0,6,2.539,7.732,7.732,0,0,0,5.909-2.585,8.821,8.821,0,0,0,2.447-6.325,8.231,8.231,0,0,0-2.493-6,8.026,8.026,0,0,0-6-2.539,7.855,7.855,0,0,0-2.724.462,8.724,8.724,0,0,0-2.447,1.431,8.891,8.891,0,0,0-2.308,3.047A8.625,8.625,0,0,0,1555.115,378.618Zm-16.619.508h12.742a10.716,10.716,0,0,1-3.232,7.34,10.538,10.538,0,0,1-14.727-.185,10.583,10.583,0,0,1-3-7.71,10.376,10.376,0,0,1,.831-4.109,10.257,10.257,0,0,1,2.354-3.462,10.568,10.568,0,0,1,3.37-2.262,11.82,11.82,0,0,1,4.109-.739,10.131,10.131,0,0,1,9.187,5.586h-2.447a10.024,10.024,0,0,0-3.139-2.724,7.655,7.655,0,0,0-3.693-.877,7.956,7.956,0,0,0-6,2.539,8.432,8.432,0,0,0-2.447,6.094,8.711,8.711,0,0,0,2.447,6.279,7.956,7.956,0,0,0,6,2.539,7.857,7.857,0,0,0,5.078-1.8,8.388,8.388,0,0,0,2.908-4.709H1538.5Zm-15.1,2.262v7.571h-1.985v-7.571l-6.555-12.973h2.308l5.263,10.664,5.309-10.664H1530Zm-8.587,7.571h-9.233V368.416h1.985v18.559h7.248Zm-33.054-10.387a10.954,10.954,0,0,1,6.555-9.833,10.984,10.984,0,0,1,3.924-.739,10.555,10.555,0,0,1,4.016.785,11.215,11.215,0,0,1,3.37,2.216,11.519,11.519,0,0,1,2.355,3.462,10.86,10.86,0,0,1,.784,4.109,11.473,11.473,0,0,1-.692,4.016,10.411,10.411,0,0,1-2.031,3.324,10.211,10.211,0,0,1-3.555,2.585,10.747,10.747,0,0,1-4.247.877,9.9,9.9,0,0,1-7.433-3.139A10.44,10.44,0,0,1,1481.757,378.572Zm2.124.046a8.787,8.787,0,0,0,2.447,6.279,7.956,7.956,0,0,0,6,2.539,7.732,7.732,0,0,0,5.909-2.585,8.82,8.82,0,0,0,2.447-6.325,8.231,8.231,0,0,0-2.493-6,8.026,8.026,0,0,0-6-2.539,7.854,7.854,0,0,0-2.724.462,8.714,8.714,0,0,0-2.447,1.431,8.888,8.888,0,0,0-2.308,3.047A8.625,8.625,0,0,0,1483.881,378.618ZM1468,368.416h4.386a24.715,24.715,0,0,1,3,.185,6.183,6.183,0,0,1,1.847.646,5.4,5.4,0,0,1,2.077,2.124,5.735,5.735,0,0,1,.739,2.955,6.666,6.666,0,0,1-.646,2.862,5.377,5.377,0,0,1-1.847,2.077,6.151,6.151,0,0,1-1.938.831,16.073,16.073,0,0,1-2.909.231h-2.678v8.633H1468Zm2.031,2.031v7.8h2.955a5.81,5.81,0,0,0,3.693-.923,4.359,4.359,0,0,0,0-5.909,6.153,6.153,0,0,0-3.832-.969Z" transform="translate(-1400.229 -351.011)"/><path class="a" d="M28.9,2.678a2.678,2.678,0,1,1-2.678,2.678A2.68,2.68,0,0,1,28.9,2.678ZM28.9,0a5.355,5.355,0,1,1-5.355,5.355A5.359,5.359,0,0,1,28.9,0ZM5.355,42.38a2.678,2.678,0,1,1-2.678,2.678A2.68,2.68,0,0,1,5.355,42.38Zm0-2.678A5.355,5.355,0,1,1,0,45.058,5.359,5.359,0,0,1,5.355,39.7ZM52.444,42.38a2.678,2.678,0,1,1-2.678,2.678A2.68,2.68,0,0,1,52.444,42.38Zm0-2.678a5.355,5.355,0,1,1-5.355,5.355A5.369,5.369,0,0,1,52.444,39.7ZM28.9,20.544h0v0Zm-9.649,16.25,9.372-5.632v-10.2Zm19.113.508L28.9,31.624,19.436,37.3Zm-9.187-6.14,9.418,5.632L29.177,20.959ZM43.026,39.7,28.9,15.881,14.773,39.7ZM9.233,41.318,27.469,10.526a6.417,6.417,0,0,1-1.293-.554L8.079,40.441A5.438,5.438,0,0,1,9.233,41.318Zm38.041,2.308H10.526a4.871,4.871,0,0,1,.185,1.431H47.089A7.137,7.137,0,0,1,47.274,43.627Zm2.447-3.185L31.624,9.972a5.457,5.457,0,0,1-1.293.554L48.613,41.318A5.156,5.156,0,0,1,49.721,40.441Z" transform="translate(0 0)"/></g></svg>