<svg xmlns="http://www.w3.org/2000/svg" viewBox="143.161 370.4 73.41 58.584"><defs><style>.a{fill:#1b4a66;fill-rule:evenodd;}</style></defs><path class="a" d="M71.517,40.96c-.122-.245-.367-.49-.49-.775-.53-1.55-1.061-3.141-1.591-4.651a.923.923,0,0,0-.367-.49,2.807,2.807,0,0,1-.979-2.856,1.348,1.348,0,0,0,0-.571c-1.387-4.039-2.733-8.078-4.12-12.076a.386.386,0,0,0-.326-.286c-.9-.082-1.8,0-2.733,0v.9c0,.49-.245.816-.612.816-.408,0-.653-.245-.653-.816v-.816a.126.126,0,0,0-.041-.082H56.912c-.122,0-.245.163-.245.326l-.122.326-1.306-.49c.938-2.774,1.877-5.508,2.856-8.282a.534.534,0,0,0-.2-.694,2.727,2.727,0,0,1-.653-.571c-.245.612-.449,1.265-.694,1.917-.775,2.366-1.591,4.773-2.448,7.18l-2.978-1.142h1.673c.245,0,.326-.122.367-.326,1.061-3.06,2.121-6.12,3.141-9.22a1.04,1.04,0,0,0,.082-.53A3.847,3.847,0,0,1,59.319,3.59c.245-.041.286-.163.286-.408V.938A.939.939,0,0,1,60.053,0h.367a.875.875,0,0,1,.49.938V3.223c0,.245.082.367.326.408a3.9,3.9,0,0,1,2.937,4.161,1.388,1.388,0,0,0,.041.408c1.1,3.1,2.121,6.242,3.182,9.3.122.326.245.408.571.408h2.774c0-.082,0-.2.041-.245a.685.685,0,0,1,.694-.571.59.59,0,0,1,.612.653v1.632c0,.49-.245.734-.612.734s-.571-.2-.694-.694a.15.15,0,0,0-.041-.122H68.008c.041.122.082.286.122.449,1.224,3.509,2.407,7.1,3.631,10.648a1.407,1.407,0,0,0,.367.49,2.741,2.741,0,0,1,.979,2.815,1.863,1.863,0,0,0,.082.816,3.315,3.315,0,0,1-.449,3.182,3.475,3.475,0,0,1-.653.694.39.39,0,0,0-.163.53,4.932,4.932,0,0,1,.326,1.02c.2.612.163.734-.286,1.142A.584.584,0,0,0,71.517,40.96ZM49,16.972h.041a.627.627,0,0,1,.571.245ZM70.415,30.231c-2.325-6.813-4.61-13.585-6.976-20.4a5.488,5.488,0,0,1-.775.653c-.245.2-.326.367-.2.653,2.2,6.364,4.365,12.769,6.528,19.134.041.163.082.245.122.408C69.559,30.516,69.967,30.394,70.415,30.231ZM63.439,17.869c-.653-1.917-1.265-3.753-1.877-5.548a7.055,7.055,0,0,1-1.265.286,7.505,7.505,0,0,1-1.224-.286c-.653,1.8-1.224,3.631-1.877,5.508h2.448v-.9c0-.53.245-.775.653-.775.367,0,.612.286.612.775v.938Zm-1.591-8.4A2.5,2.5,0,0,0,62.7,6.487a2.727,2.727,0,0,0-2.611-1.673,2.551,2.551,0,0,0-1.387,4.61C59.808,8.445,60.543,8.486,61.848,9.465ZM71.925,32.882a1.245,1.245,0,0,0-1.265-1.265,1.29,1.29,0,0,0-1.346,1.265,1.324,1.324,0,0,0,1.346,1.306A1.28,1.28,0,0,0,71.925,32.882Zm-.53,4.284a1.742,1.742,0,0,0,.612-2.04c-.367.163-.775.245-1.183.408C71.027,36.105,71.191,36.595,71.395,37.166ZM60.91,10.648a.633.633,0,1,0-.612.653C60.624,11.342,60.91,10.974,60.91,10.648ZM13.871,43.775a.987.987,0,0,1-.408-.938V27.66c.041-.449.245-.694.653-.694h1.632V23.989a.8.8,0,0,1,.53-.816l.449-.245a1.986,1.986,0,0,0-.041.49v5.712l-.041.041a1.02,1.02,0,0,0-.163.571v7.547a1.388,1.388,0,0,0,.041.408.658.658,0,0,0,.163.286v5.793ZM31.9,15.5V10.77c0-.163-.041-.286-.245-.245-.938,0-.734-.122-.734.734v2.815c0,.571-.245.816-.857.816H2.856c-.653,0-.857-.245-.857-.816V10.893c0-.245-.041-.286-.286-.286H.694A.613.613,0,0,1,0,9.954.632.632,0,0,1,.694,9.3h1.02c.245,0,.367-.041.286-.286V5.875c0-.653.245-.9.9-.9h27.13c.694,0,.9.2.9.9V9.3h1.55c.571,0,.816.245.816.816v4.855A13.963,13.963,0,0,0,31.9,15.5ZM23.173,7.955h5.222a.741.741,0,0,0,.571-.571.551.551,0,0,0-.367-.612,1.722,1.722,0,0,0-.49-.122H18.2a.491.491,0,0,0-.326.082.608.608,0,0,0-.49.49.578.578,0,0,0,.286.653A.91.91,0,0,0,18.2,8C19.868,7.955,21.541,7.955,23.173,7.955ZM37.656,58.544c-1.061-.612-2.121-1.224-3.223-1.836q-7.4-3.978-14.932-7.955a.728.728,0,0,1-.49-.734V24.4a.3.3,0,0,1,.082-.245c.122.041.286.082.408.122,5.956,2.774,11.831,5.508,17.787,8.2a.749.749,0,0,1,.53.775V58.013a2.156,2.156,0,0,1-.041.49A.2.2,0,0,1,37.656,58.544Zm1.632,0c0-.612-.041-1.183-.041-1.754V33.413a.853.853,0,0,1,.53-.938c5.956-2.693,11.831-5.426,17.787-8.2a1.259,1.259,0,0,0,.408-.2c0,.245.082.49.082.694V47.9a.966.966,0,0,1-.612.979c-5.834,3.1-11.668,6.242-17.5,9.3a1.83,1.83,0,0,0-.53.408C39.41,58.544,39.328,58.544,39.287,58.544ZM19.746,22.765c3.1-1.224,6.12-2.366,9.1-3.549,3.1-1.224,6.242-2.448,9.3-3.631a1.362,1.362,0,0,1,.694-.041Q47.9,19.093,56.952,22.6c.122.082.163.082.286.163-.122.082-.245.2-.326.245-5.956,2.733-11.872,5.508-17.828,8.241a1.18,1.18,0,0,1-.979.041c-5.956-2.733-11.994-5.548-17.991-8.282A1.424,1.424,0,0,0,19.746,22.765Z" transform="translate(143.161 370.4)"/></svg>