<svg xmlns="http://www.w3.org/2000/svg" viewBox="135.243 263.099 96.601 58.085"><defs><style>.a{fill:#1b4a66;}</style></defs><g transform="translate(135.243 263.099)"><path class="a" d="M200.548,347.5a3.439,3.439,0,0,1-1.35-2.245l-.457-2.924H184.156l-.459,2.924a3.434,3.434,0,0,1-1.348,2.245c-1.219.9-2.182,1.668-1.219,1.8.927.125,9.673.011,10.318,0,.647.011,9.391.125,10.319,0C202.729,349.172,201.766,348.4,200.548,347.5Z" transform="translate(-150.084 -293.05)"/><path class="a" d="M66.539,251.693a2.451,2.451,0,0,0-2.451-2.45H52.451A2.451,2.451,0,0,0,50,251.693v25.725a2.451,2.451,0,0,0,2.451,2.451H64.089a2.451,2.451,0,0,0,2.451-2.451V251.693ZM57.054,252H59.5a.306.306,0,1,1,0,.612h-2.45a.306.306,0,1,1,0-.612Zm1.123,26.421A1.226,1.226,0,1,1,59.4,277.2,1.226,1.226,0,0,1,58.177,278.421Zm6.831-3.451H51.531V254.449H65.008V274.97Z" transform="translate(-50 -221.785)"/><path class="a" d="M353.83,189.137h-25.2a3.436,3.436,0,0,0-3.437,3.436v36.074a3.438,3.438,0,0,0,3.437,3.438h25.2a3.437,3.437,0,0,0,3.437-3.438V192.572A3.436,3.436,0,0,0,353.83,189.137Zm-17.537,41.036a1.717,1.717,0,1,1,1.715-1.716A1.718,1.718,0,0,1,336.293,230.173Zm4.934,0a1.717,1.717,0,1,1,1.718-1.716A1.717,1.717,0,0,1,341.227,230.173Zm4.939,0a1.717,1.717,0,1,1,1.717-1.716A1.716,1.716,0,0,1,346.166,230.173Zm8.953-4.963H327.337V192.142h27.782V225.21Z" transform="translate(-260.666 -175.772)"/><path class="a" d="M142.457,142.6h4.224v-7.65a2.816,2.816,0,0,0-2.817-2.817H79.09a2.817,2.817,0,0,0-2.817,2.817V156.7H80.5V136.359h61.959V142.6Z" transform="translate(-70.113 -132.135)"/><path class="a" d="M132.9,294.287v8.449h42.188v-8.449Zm21.927,6.156a1.932,1.932,0,1,1,1.932-1.932A1.933,1.933,0,0,1,154.826,300.443Z" transform="translate(-113.462 -256.268)"/></g></svg>